# xmcd
#
# Track frame offsets: 
#        150
#        21738
#        45663
#        70338
#        90138
#        120288
#        143313
#        164463
#
# Disc length: 2582 seconds
#
# Revision: 0
# Processed by: cddbd v1.5.2PL0 Copyright (c) Steve Scherf et al.
# Submitted via: ExactAudioCopy v1.0b1
#
DISCID=5d0a1408
DTITLE=Four Fried Fish - "Hey Flam, play the blues"
DYEAR=2010
DGENRE=Blues
TTITLE0=Homeway Blues
TTITLE1=Rollin' Stone
TTITLE2=Blues For Mr.G
TTITLE3=Making Love
TTITLE4=H5n1
TTITLE5=Monkey Blues
TTITLE6=Maybe A Man
TTITLE7=When The Saints Go Marchin' In
EXTD=
EXTT0=
EXTT1=
EXTT2=
EXTT3=
EXTT4=
EXTT5=
EXTT6=
EXTT7=
PLAYORDER=
